<svg xmlns="http://www.w3.org/2000/svg" xmlns:svg="http://www.w3.org/2000/svg" xmlns:xlink="http://www.w3.org/1999/xlink" id="svg2" width="192" height="192" version="1.1" viewBox="0 0 192 192"><defs id="defs4"><linearGradient id="linearGradient4296"><stop style="stop-color:#646464;stop-opacity:1" id="stop4298" offset="0"/><stop style="stop-color:#646464;stop-opacity:0" id="stop4300" offset="1"/></linearGradient><linearGradient id="Ombra_1"><stop id="stop4284" offset="0" style="stop-color:#fff;stop-opacity:.15"/><stop id="stop4286" offset="1" style="stop-color:#fff;stop-opacity:0"/></linearGradient><radialGradient id="radialGradient4155" cx="34.212" cy="874.184" r="66.468" fx="34.212" fy="874.184" gradientTransform="matrix(0.01609262,1.6780488,-1.9140901,0.01835633,1708.2756,797.49116)" gradientUnits="userSpaceOnUse" xlink:href="#Ombra_1"/><linearGradient id="linearGradient4280" x1="62.5" x2="121.988" y1="990.829" y2="1032.329" gradientTransform="translate(0,-2.9687501)" gradientUnits="userSpaceOnUse" xlink:href="#linearGradient4296"/></defs><metadata id="metadata7"/><g id="layer1" transform="translate(0,-860.3622)"><path style="fill:#646464;fill-opacity:1;stroke:#000;stroke-width:0;stroke-linejoin:round;stroke-miterlimit:4;stroke-dasharray:none;stroke-opacity:1" id="rect4136-4-4" d="m 32.00003,1009.1116 0,31.6881 c 0,2.5289 2.04815,4.5645 4.59289,4.5645 l 5.4537,0 33.33121,0 64.56799,0 c 11.11001,0 20.05415,-9.3574 20.05415,-20.9799 l 0,-15.2727 -127.99994,0 z"/><path style="fill:#919191;fill-opacity:1;stroke:#000;stroke-width:0;stroke-linejoin:round;stroke-miterlimit:4;stroke-dasharray:none;stroke-opacity:1" id="rect4136-4-3-3" d="m 36.659265,867.36418 c -2.5727,0 -4.64364,2.06608 -4.64364,4.63271 l 0,36.59821 c 0,0.05 0.009,0.097 0.0137,0.146 l 127.955045,0 0,-20.31655 c -3e-5,-11.6672 -8.94417,-21.06037 -20.05418,-21.06037 l -64.589455,0 -33.30974,0 -5.37172,0 z"/><path style="fill:#757575;fill-opacity:1;stroke:#000;stroke-width:0;stroke-linejoin:round;stroke-miterlimit:4;stroke-dasharray:none;stroke-opacity:1" id="rect4136-40" d="m 36.67488,868.36679 c -2.57269,0 -4.64365,2.07213 -4.64365,4.6463 l -0.0312,166.75181 c 0,2.5461 2.04816,4.5955 4.5929,4.5955 l 5.4537,0 33.33121,0 64.56798,0 c 11.11001,0 20.05415,-9.4208 20.05415,-21.1223 l 0,-133.74909 c 0,-11.70146 -8.94414,-21.12222 -20.05415,-21.12222 l -64.58945,0 -33.30974,0 -5.37172,0 z"/><rect style="fill:#70bf73;fill-opacity:1;stroke:#000;stroke-width:0;stroke-linecap:butt;stroke-linejoin:round;stroke-miterlimit:4;stroke-dasharray:none;stroke-opacity:1" id="rect4167-1-3" width="128" height="46" x="32" y="932.362" ry="0"/><path style="fill:url(#linearGradient4280);fill-opacity:1;stroke:#000;stroke-width:0;stroke-linejoin:round;stroke-miterlimit:4;stroke-dasharray:none;stroke-opacity:1" id="rect4136-40-9" d="m 32.000195,979.36344 0,0.99875 65.58789,63.99691 42.345705,0 c 4.14882,0 7.99573,-1.3147 11.1875,-3.5703 l 5.70703,-6.1719 c 1.992,-3.2827 3.16016,-7.1798 3.16016,-11.3808 l 0,-42.87391 -0.008,0 -127.980475,0 z"/><rect style="fill:#44964b;fill-opacity:1;stroke:#000;stroke-width:0;stroke-linecap:butt;stroke-linejoin:round;stroke-miterlimit:4;stroke-dasharray:none;stroke-opacity:1" id="rect4167-1-1" width="128" height="46" x="32" y="934.362" ry="0"/><rect style="fill:#4caf50;fill-opacity:1;stroke:#000;stroke-width:0;stroke-linecap:butt;stroke-linejoin:round;stroke-miterlimit:4;stroke-dasharray:none;stroke-opacity:1" id="rect4167-1" width="128" height="46" x="32" y="933.362" ry="0"/><text style="font-style:normal;font-weight:400;font-size:40px;line-height:125%;font-family:sans-serif;letter-spacing:0;word-spacing:0;fill:#eee;fill-opacity:1;stroke:none;stroke-width:1px;stroke-linecap:butt;stroke-linejoin:miter;stroke-opacity:1;-inkscape-font-specification:sans-serif;font-stretch:normal;font-variant:normal" id="text4303-0" x="52.953" y="966.401" xml:space="preserve"><tspan id="tspan4305-8" x="52.953" y="966.401" style="-inkscape-font-specification:Verdana;font-family:Verdana;font-weight:400;font-style:normal;font-stretch:normal;font-variant:normal;letter-spacing:0">nqq</tspan></text><rect style="fill:#424242;fill-opacity:1;stroke:none;stroke-width:0;stroke-linecap:butt;stroke-linejoin:round;stroke-miterlimit:4;stroke-dasharray:none;stroke-opacity:1" id="rect4307-5" width="7" height="178.001" x="131.539" y="867.362"/><rect style="fill:url(#radialGradient4155);fill-opacity:1;stroke:none;stroke-width:0;stroke-linecap:butt;stroke-linejoin:round;stroke-miterlimit:4;stroke-dasharray:none;stroke-opacity:1" id="rect5460" width="132.936" height="182.434" x="29.592" y="864.858"/></g></svg>