<svg xmlns="http://www.w3.org/2000/svg" xmlns:svg="http://www.w3.org/2000/svg" xmlns:xlink="http://www.w3.org/1999/xlink" id="svg2" width="192" height="192" version="1.1" viewBox="0 0 192 192"><defs id="defs4"><linearGradient id="linearGradient4296"><stop style="stop-color:#646464;stop-opacity:1" id="stop4298" offset="0"/><stop style="stop-color:#646464;stop-opacity:0" id="stop4300" offset="1"/></linearGradient><linearGradient id="Ombra_1"><stop id="stop4284" offset="0" style="stop-color:#fff;stop-opacity:.23529412"/><stop id="stop4286" offset="1" style="stop-color:#fff;stop-opacity:0"/></linearGradient><linearGradient id="linearGradient4280" x1="62.5" x2="111.988" y1="990.829" y2="1037.079" gradientTransform="translate(0,-2.96875)" gradientUnits="userSpaceOnUse" xlink:href="#linearGradient4296"/><radialGradient id="radialGradient4193" cx="28.726" cy="-166.196" r="65" fx="28.726" fy="-166.196" gradientTransform="matrix(7.6221826e-8,1.3380634,-1.7119054,9.7517468e-8,-253.12414,829.27344)" gradientUnits="userSpaceOnUse" xlink:href="#Ombra_1"/></defs><metadata id="metadata7"/><g id="layer1" transform="translate(0,-860.3622)"><path style="fill:#646464;fill-opacity:1;stroke:#000;stroke-width:0;stroke-linejoin:round;stroke-miterlimit:4;stroke-dasharray:none;stroke-opacity:1" id="rect4136-4-4" d="m 32.00003,1009.1116 0,31.6881 c 0,2.5289 2.04815,4.5645 4.59289,4.5645 l 5.4537,0 33.33121,0 64.56799,0 c 11.11001,0 20.05415,-9.3574 20.05415,-20.9799 l 0,-15.2727 -127.99994,0 z"/><path style="fill:#919191;fill-opacity:1;stroke:#000;stroke-width:0;stroke-linejoin:round;stroke-miterlimit:4;stroke-dasharray:none;stroke-opacity:1" id="rect4136-4-3-3" d="m 36.659265,867.36418 c -2.5727,0 -4.64364,2.06608 -4.64364,4.63271 l 0,36.59821 c 0,0.05 0.009,0.097 0.0137,0.146 l 127.955045,0 0,-20.31655 c -3e-5,-11.6672 -8.94417,-21.06037 -20.05418,-21.06037 l -64.589455,0 -33.30974,0 -5.37172,0 z"/><path style="fill:#757575;fill-opacity:1;stroke:#000;stroke-width:0;stroke-linejoin:round;stroke-miterlimit:4;stroke-dasharray:none;stroke-opacity:1" id="rect4136-40" d="m 36.67488,868.36679 c -2.57269,0 -4.64365,2.07213 -4.64365,4.6463 l -0.0312,166.75181 c 0,2.5461 2.04816,4.5955 4.5929,4.5955 l 5.4537,0 33.33121,0 64.56798,0 c 11.11001,0 20.05415,-9.4208 20.05415,-21.1223 l 0,-133.74909 c 0,-11.70146 -8.94414,-21.12222 -20.05415,-21.12222 l -64.58945,0 -33.30974,0 -5.37172,0 z"/><rect style="fill:#70bf73;fill-opacity:1;stroke:#000;stroke-width:0;stroke-linecap:butt;stroke-linejoin:round;stroke-miterlimit:4;stroke-dasharray:none;stroke-opacity:1" id="rect4167-1-3" width="128" height="63.86" x="32" y="923.362" ry="0"/><path style="fill:url(#linearGradient4280);fill-opacity:1;stroke:#000;stroke-width:0;stroke-linejoin:round;stroke-miterlimit:4;stroke-dasharray:none;stroke-opacity:1" id="rect4136-40-9" d="m 32.007712,988.36382 0,0.99875 53.58789,54.99653 54.338188,0 c 4.14882,0 7.99573,-1.3147 11.1875,-3.5703 l 5.70703,-6.1719 c 1.992,-3.2827 3.16016,-7.1798 3.16016,-11.3808 l 0,-33.87353 -0.008,0 -127.972958,0 z" clip-path="none" mask="none"/><rect style="fill:#44964b;fill-opacity:1;stroke:#000;stroke-width:0;stroke-linecap:butt;stroke-linejoin:round;stroke-miterlimit:4;stroke-dasharray:none;stroke-opacity:1" id="rect4167-1-1" width="128" height="46" x="32" y="943.362" ry="0"/><rect style="fill:#4caf50;fill-opacity:1;stroke:#000;stroke-width:0;stroke-linecap:butt;stroke-linejoin:round;stroke-miterlimit:4;stroke-dasharray:none;stroke-opacity:1" id="rect4167-1" width="128" height="63.86" x="32" y="924.503" ry="0"/><text style="font-style:normal;font-variant:normal;font-weight:400;font-stretch:normal;font-size:40px;line-height:125%;font-family:sans-serif;-inkscape-font-specification:sans-serif;letter-spacing:0;word-spacing:0;fill:#e0e0e0;fill-opacity:1;stroke:none;stroke-width:1px;stroke-linecap:butt;stroke-linejoin:miter;stroke-opacity:1" id="text4303-0" x="52.953" y="966.401" xml:space="preserve"><tspan id="tspan4305-8" x="52.953" y="966.401" style="font-style:normal;font-variant:normal;font-weight:400;font-stretch:normal;font-family:Verdana;-inkscape-font-specification:Verdana;letter-spacing:0;fill:#e0e0e0;fill-opacity:1">nqq</tspan></text><rect style="fill:#424242;fill-opacity:1;stroke:none;stroke-width:0;stroke-linecap:butt;stroke-linejoin:round;stroke-miterlimit:4;stroke-dasharray:none;stroke-opacity:1" id="rect4307-5" width="8" height="178.001" x="132" y="867.362"/><path style="fill:url(#radialGradient4193);fill-opacity:1;stroke:#000;stroke-width:0;stroke-linejoin:round;stroke-miterlimit:4;stroke-dasharray:none;stroke-opacity:1" id="rect4136-4-4-5" d="m 36.66003,867.36417 c -2.5727,0 -4.64453,2.06618 -4.64453,4.63281 l 0,36.59766 c 0,0.0327 0.006,0.0642 0.01,0.0957 l -0.004,23.67188 -0.0215,0 0,1 0,45 0,1 0,1 0.01173,0 -0.006,28.74998 -0.006,0 0,31.6875 c 0,2.5289 2.049,4.5645 4.59374,4.5645 l 5.45315,0 33.33202,0 64.5664,0 c 11.11,0 20.05468,-9.358 20.05468,-20.9805 l 0,-1.1465 0,-42.87498 2.8e-4,0 0,-1 0,-46 0,-1 -2.8e-4,0 0,-42.87305 c 0,-0.22477 -0.009,-0.44688 -0.0156,-0.66992 l 0,-0.39453 c -3e-5,-11.6672 -8.94468,-21.06055 -20.05469,-21.06055 l -64.58789,0 -33.31055,0 -5.37108,0 z"/></g></svg>
